<svg width="150" height="150" viewBox="0 0 150 150" fill="none" xmlns="http://www.w3.org/2000/svg">
<rect x="1" y="1" width="148" height="148" rx="74" fill="#DFCCD7"/>
<rect x="1" y="1" width="148" height="148" rx="74" stroke="#5E0035" stroke-width="2"/>
<path d="M93.3125 105.217L107.021 98.7402C108.476 98.0051 110.159 97.8588 111.719 98.3317C113.279 98.8045 114.596 99.8601 115.398 101.279L87.5293 119.307C83.7926 121.031 79.6001 121.506 75.5723 120.662L56.3516 115.266C54.5825 114.769 52.6901 114.977 51.0703 115.844L47.0508 117.994L47.5918 98.3906L47.752 98.3945C50.5695 96.3933 53.8839 95.207 57.3314 94.9659C60.7789 94.7247 64.2262 95.4379 67.2949 97.0274L68.4453 97.6231C70.244 98.5558 72.2305 99.0692 74.2559 99.125L85.5547 99.4356C87.2858 99.4829 88.9599 100.064 90.3485 101.098C91.737 102.133 92.7722 103.572 93.3125 105.217Z" fill="#CCCCCC"/>
<path d="M75.9766 91.8965C87.6274 91.8965 97.0723 82.4516 97.0723 70.8008C97.0723 59.1499 87.6274 49.7051 75.9766 49.7051C64.3257 49.7051 54.8809 59.1499 54.8809 70.8008C54.8809 82.4516 64.3257 91.8965 75.9766 91.8965Z" fill="#FCFCFC"/>
<path d="M47.0508 117.994L46.9902 120.203L34.6016 119.861L35.3496 92.6719L47.7402 93.0137L47.5918 98.3906L47.0508 117.994Z" fill="#9D8EFB"/>
<path d="M76.1069 79.3312C75.9319 79.293 75.7515 79.2864 75.5743 79.3117C74.7078 79.2167 73.9072 78.8044 73.3266 78.1543C72.746 77.5042 72.4266 76.6622 72.4297 75.7906C72.4297 75.3762 72.2651 74.9788 71.9721 74.6858C71.6791 74.3927 71.2816 74.2281 70.8672 74.2281C70.4528 74.2281 70.0554 74.3927 69.7624 74.6858C69.4693 74.9788 69.3047 75.3762 69.3047 75.7906C69.2997 77.2553 69.7789 78.6805 70.6676 79.8447C71.5563 81.0089 72.8048 81.8468 74.219 82.2281V83.7891C74.219 84.2035 74.3836 84.6009 74.6766 84.8939C74.9697 85.1869 75.3671 85.3516 75.7815 85.3516C76.1959 85.3516 76.5933 85.1869 76.8863 84.8939C77.1794 84.6009 77.344 84.2035 77.344 83.7891V82.3215C78.9595 81.983 80.3923 81.0578 81.3655 79.7246C82.3387 78.3914 82.7832 76.7448 82.6132 75.103C82.4432 73.4611 81.6708 71.9406 80.4451 70.835C79.2194 69.7295 77.6274 69.1175 75.9768 69.1172C75.2753 69.1172 74.5895 68.9092 74.0063 68.5194C73.423 68.1297 72.9684 67.5757 72.6999 66.9276C72.4315 66.2795 72.3612 65.5664 72.4981 64.8784C72.6349 64.1903 72.9727 63.5583 73.4688 63.0623C73.9648 62.5663 74.5968 62.2284 75.2848 62.0916C75.9729 61.9547 76.686 62.025 77.3341 62.2934C77.9822 62.5619 78.5362 63.0165 78.9259 63.5998C79.3156 64.1831 79.5237 64.8688 79.5237 65.5703C79.5237 65.9847 79.6883 66.3821 79.9813 66.6752C80.2743 66.9682 80.6718 67.1328 81.0862 67.1328C81.5006 67.1328 81.898 66.9682 82.191 66.6752C82.4841 66.3821 82.6487 65.9847 82.6487 65.5703C82.6466 64.0387 82.1186 62.5543 81.153 61.3656C80.1873 60.1768 78.8426 59.3557 77.344 59.0398V57.6172C77.344 57.2028 77.1794 56.8054 76.8863 56.5123C76.5933 56.2193 76.1959 56.0547 75.7815 56.0547C75.3671 56.0547 74.9697 56.2193 74.6766 56.5123C74.3836 56.8054 74.219 57.2028 74.219 57.6172V59.1352C72.6602 59.5607 71.3088 60.5376 70.4159 61.8844C69.523 63.2311 69.1492 64.8561 69.364 66.4577C69.5788 68.0592 70.3675 69.5283 71.5837 70.5922C72.7999 71.6561 74.3609 72.2424 75.9768 72.2422C76.9109 72.2346 77.8102 72.5959 78.4794 73.2476C79.1486 73.8993 79.5336 74.7888 79.5508 75.7227C79.5679 76.6567 79.2158 77.5597 78.5709 78.2355C77.9261 78.9113 77.0406 79.3054 76.1069 79.332V79.3312Z" fill="#5A47D0"/>
<path d="M75.9766 93.459C80.4579 93.459 84.8387 92.1301 88.5648 89.6404C92.2909 87.1507 95.1951 83.612 96.91 79.4717C98.625 75.3315 99.0737 70.7757 98.1994 66.3804C97.3251 61.9851 95.1671 57.9478 91.9983 54.779C88.8295 51.6102 84.7922 49.4522 80.397 48.578C76.0017 47.7037 71.4459 48.1524 67.3056 49.8673C63.1654 51.5823 59.6267 54.4864 57.137 58.2126C54.6472 61.9387 53.3184 66.3194 53.3184 70.8008C53.3252 76.808 55.7146 82.5673 59.9623 86.815C64.2101 91.0628 69.9693 93.4522 75.9766 93.459ZM75.9766 51.2676C79.8399 51.2676 83.6164 52.4132 86.8286 54.5595C90.0408 56.7059 92.5445 59.7565 94.0229 63.3258C95.5013 66.895 95.8881 70.8225 95.1344 74.6115C94.3807 78.4006 92.5204 81.8811 89.7886 84.6129C87.0569 87.3446 83.5764 89.205 79.7873 89.9587C75.9982 90.7124 72.0708 90.3255 68.5015 88.8471C64.9323 87.3687 61.8816 84.8651 59.7353 81.6529C57.589 78.4406 56.4434 74.6641 56.4434 70.8008C56.4492 65.6221 58.509 60.6571 62.171 56.9952C65.8329 53.3333 70.7978 51.2734 75.9766 51.2676Z" fill="#5A47D0"/>
<path d="M106.336 97.3357L94.1015 103.116C93.2683 101.573 92.0439 100.276 90.5512 99.3561C89.0585 98.4359 87.35 97.9247 85.5972 97.8736L74.2991 97.5631C72.5093 97.5112 70.754 97.0573 69.1634 96.235L68.013 95.6393C65.1125 94.128 61.8895 93.3405 58.6188 93.3441C55.3482 93.3477 52.127 94.1423 49.2298 95.66L49.3017 93.0563C49.3073 92.8511 49.2725 92.6469 49.1993 92.4552C49.126 92.2636 49.0157 92.0882 48.8747 91.9392C48.7337 91.7901 48.5647 91.6703 48.3774 91.5866C48.19 91.5029 47.988 91.4568 47.7829 91.4512L35.3923 91.1094C35.1872 91.1037 34.9829 91.1385 34.7912 91.2118C34.5996 91.285 34.4242 91.3953 34.2751 91.5364C34.1261 91.6774 34.0063 91.8465 33.9226 92.0338C33.8388 92.2212 33.7929 92.4232 33.7872 92.6283L33.0392 119.818C33.0278 120.232 33.1814 120.634 33.4662 120.935C33.751 121.236 34.1437 121.411 34.5579 121.423L46.9466 121.764H46.9898C47.3968 121.765 47.7879 121.606 48.0798 121.322C48.3716 121.038 48.5411 120.652 48.5523 120.245L48.5878 118.945L51.8079 117.222C53.0712 116.543 54.5488 116.381 55.929 116.771L75.1499 122.167C75.1835 122.177 75.2175 122.185 75.2519 122.192C76.6404 122.482 78.0552 122.628 79.4737 122.627C82.4805 122.629 85.4521 121.981 88.1847 120.726C88.2518 120.695 88.3166 120.659 88.3786 120.619L116.248 102.592C116.582 102.376 116.821 102.04 116.916 101.653C117.011 101.266 116.955 100.858 116.759 100.511C115.763 98.7432 114.125 97.4269 112.184 96.8355C110.243 96.2442 108.149 96.4234 106.336 97.3357ZM45.5077 117.951L45.4806 118.598L36.2108 118.343L36.8708 94.2773L46.1458 94.5328L45.5077 117.951V117.951ZM86.7757 117.933C83.3817 119.465 79.5913 119.889 75.9429 119.144L56.7733 113.761C54.6164 113.152 52.3071 113.405 50.3331 114.466L48.6868 115.347L49.1286 99.3453C51.6876 97.6435 54.6564 96.6594 57.7253 96.4957C60.7942 96.3321 63.8508 96.9948 66.5763 98.4148L67.7255 99.01C69.7348 100.048 71.952 100.622 74.2128 100.687L85.5118 100.997C86.9205 101.038 88.2824 101.511 89.4124 102.353C90.5425 103.195 91.3857 104.365 91.8275 105.703C91.9086 105.951 91.9754 106.203 92.0275 106.458L75.1952 105.995C74.781 105.983 74.3792 106.137 74.0782 106.422C73.7772 106.707 73.6017 107.099 73.5903 107.514C73.5789 107.928 73.7326 108.33 74.0174 108.631C74.3023 108.932 74.695 109.107 75.1093 109.119L93.6815 109.63H93.7245C94.1316 109.63 94.5227 109.472 94.8145 109.188C95.1063 108.904 95.2759 108.517 95.287 108.111C95.3055 107.431 95.2549 106.752 95.1358 106.083L107.69 100.152C107.702 100.146 107.714 100.14 107.726 100.134C108.596 99.6937 109.579 99.5299 110.544 99.6649C111.509 99.7998 112.409 100.227 113.124 100.889L86.7757 117.933ZM75.9765 45.3125C76.3909 45.3125 76.7883 45.1479 77.0813 44.8549C77.3744 44.5618 77.539 44.1644 77.539 43.75V28.9062C77.539 28.4918 77.3744 28.0944 77.0813 27.8014C76.7883 27.5084 76.3909 27.3438 75.9765 27.3438C75.5621 27.3438 75.1646 27.5084 74.8716 27.8014C74.5786 28.0944 74.414 28.4918 74.414 28.9062V43.75C74.414 44.1644 74.5786 44.5618 74.8716 44.8549C75.1646 45.1479 75.5621 45.3125 75.9765 45.3125ZM87.6952 45.3125C88.1096 45.3125 88.5071 45.1479 88.8001 44.8549C89.0931 44.5618 89.2577 44.1644 89.2577 43.75V36.7188C89.2577 36.3043 89.0931 35.9069 88.8001 35.6139C88.5071 35.3209 88.1096 35.1562 87.6952 35.1562C87.2808 35.1562 86.8834 35.3209 86.5904 35.6139C86.2973 35.9069 86.1327 36.3043 86.1327 36.7188V43.75C86.1327 44.1644 86.2973 44.5618 86.5904 44.8549C86.8834 45.1479 87.2808 45.3125 87.6952 45.3125ZM64.2577 45.3125C64.6721 45.3125 65.0695 45.1479 65.3626 44.8549C65.6556 44.5618 65.8202 44.1644 65.8202 43.75V36.7188C65.8202 36.3043 65.6556 35.9069 65.3626 35.6139C65.0695 35.3209 64.6721 35.1562 64.2577 35.1562C63.8433 35.1562 63.4459 35.3209 63.1529 35.6139C62.8598 35.9069 62.6952 36.3043 62.6952 36.7188V43.75C62.6952 44.1644 62.8598 44.5618 63.1529 44.8549C63.4459 45.1479 63.8433 45.3125 64.2577 45.3125Z" fill="#5A47D0"/>
</svg>
